<?xml version="1.0" encoding="UTF-8"?>
<svg version="1.1" xmlns="http://www.w3.org/2000/svg" width="256" height="256">
<path d="M0 0 C6.81272232 1.0092922 11.83419969 6.61208703 16.375 11.5 C21.3667253 18.90250173 29.375 31.19026903 29.375 40.5 C30.91414063 40.39171875 30.91414063 40.39171875 32.484375 40.28125 C56.66620829 38.75357573 81.20520579 38.79961247 105.375 40.5 C105.5709375 39.73558594 105.766875 38.97117188 105.96875 38.18359375 C107.81719953 31.56263874 110.08721263 25.61976549 113.3125 19.5625 C113.79783203 18.64198853 113.79783203 18.64198853 114.29296875 17.70288086 C117.28344794 12.2566783 120.51657492 7.06306097 126.375 4.5 C127.15875 3.79875 127.9425 3.0975 128.75 2.375 C131.98888853 0.06150819 133.47253492 -0.15041085 137.375 0.5 C139.9375 2.1875 139.9375 2.1875 142.375 4.5 C143.1896875 5.24765625 144.004375 5.9953125 144.84375 6.765625 C157.13146785 20.03939428 159.81198997 44.78005136 163.125 61.875 C163.27379608 62.6420929 163.42259216 63.40918579 163.57589722 64.19952393 C165.45030667 73.93822709 167.04695707 83.66987829 168.375 93.5 C172.665 93.17 176.955 92.84 181.375 92.5 C181.705 94.15 182.035 95.8 182.375 97.5 C177.755 98.49 173.135 99.48 168.375 100.5 C168.705 101.16 169.035 101.82 169.375 102.5 C175.315 102.005 175.315 102.005 181.375 101.5 C181.705 102.49 182.035 103.48 182.375 104.5 C177.89425805 107.86055646 174.76949293 107.77429625 169.375 107.5 C169.705 108.49 170.035 109.48 170.375 110.5 C173.015 110.83 175.655 111.16 178.375 111.5 C178.705 112.82 179.035 114.14 179.375 115.5 C176.41835481 116.9783226 173.63270263 116.56032783 170.375 116.5 C170.705 117.16 171.035 117.82 171.375 118.5 C171.67408187 121.02501696 171.92130677 123.53349555 172.12890625 126.06640625 C172.2270739 127.22712143 172.2270739 127.22712143 172.32722473 128.4112854 C172.5383174 130.96114048 172.73971377 133.51157922 172.9375 136.0625 C173.00503479 136.93170074 173.07256958 137.80090149 173.14215088 138.69644165 C174.07949989 151.02650216 174.69633055 163.32130043 174.75 175.6875 C174.75758331 176.35661407 174.76516663 177.02572815 174.77297974 177.71511841 C174.92888766 194.53937942 170.97559633 208.07078964 159.375 220.5 C160.89480469 220.77263672 160.89480469 220.77263672 162.4453125 221.05078125 C163.79696353 221.30421582 165.14852119 221.55814865 166.5 221.8125 C167.16515625 221.93044922 167.8303125 222.04839844 168.515625 222.16992188 C172.89442154 223.00704474 176.48413287 224.33638697 180.375 226.5 C180.045 227.49 179.715 228.48 179.375 229.5 C173.82948302 232.01619332 168.44147361 233.22647269 162.4375 234.0625 C161.58269043 234.18544434 160.72788086 234.30838867 159.84716797 234.43505859 C148.74031388 235.95695424 137.5624896 236.83117465 126.375 237.5 C125.67518005 237.54343536 124.97536011 237.58687073 124.2543335 237.63162231 C107.2046315 238.65672393 90.15025209 238.68756926 73.07666016 238.68530273 C69.88389338 238.68522213 66.6912721 238.69207711 63.49853516 238.70581055 C45.93097323 238.78008515 28.42592169 238.56898449 10.8828125 237.578125 C10.145397 237.53677618 9.40798149 237.49542736 8.64822006 237.45282555 C-36.04434606 234.88710263 -36.04434606 234.88710263 -45.625 228.5 C-45.295 227.51 -44.965 226.52 -44.625 225.5 C-38.21147876 222.47475413 -31.60684641 221.48909491 -24.625 220.5 C-25.14449219 219.90574219 -25.66398437 219.31148437 -26.19921875 218.69921875 C-37.5662046 205.18910432 -40.01837532 192.58491113 -39.9375 175.3125 C-39.93700653 174.59054443 -39.93651306 173.86858887 -39.93600464 173.12475586 C-39.91007205 160.54109648 -39.19717552 148.04026288 -38.1875 135.5 C-38.08654526 134.23864731 -38.08654526 134.23864731 -37.98355103 132.95181274 C-37.78926991 130.57135079 -37.58666747 128.1918203 -37.37890625 125.8125 C-37.31842102 125.09950241 -37.25793579 124.38650482 -37.19561768 123.65190125 C-36.74374373 118.73748746 -36.74374373 118.73748746 -35.625 116.5 C-37.295625 116.5309375 -37.295625 116.5309375 -39 116.5625 C-42.625 116.5 -42.625 116.5 -44.625 115.5 C-44.295 114.18 -43.965 112.86 -43.625 111.5 C-40.985 111.17 -38.345 110.84 -35.625 110.5 C-35.295 109.51 -34.965 108.52 -34.625 107.5 C-36.4503125 107.5928125 -36.4503125 107.5928125 -38.3125 107.6875 C-42.20250046 107.70822824 -44.46132249 106.87275814 -47.625 104.5 C-47.295 103.51 -46.965 102.52 -46.625 101.5 C-42.665 101.83 -38.705 102.16 -34.625 102.5 C-34.13 101.51 -34.13 101.51 -33.625 100.5 C-38.245 99.51 -42.865 98.52 -47.625 97.5 C-47.295 95.85 -46.965 94.2 -46.625 92.5 C-42.335 92.83 -38.045 93.16 -33.625 93.5 C-33.47466309 92.54037354 -33.32432617 91.58074707 -33.16943359 90.59204102 C-21.72223731 17.94836968 -21.72223731 17.94836968 -8.625 4.5 C-7.30862622 3.80044136 -5.97571973 3.13069679 -4.625 2.5 C-2.625 0.5 -2.625 0.5 0 0 Z " fill="#D3D0C5" transform="translate(60.625,3.5)"/>
<path d="M0 0 C1 3 1 3 -0.00390625 5.21484375 C-0.77541016 6.56255859 -0.77541016 6.56255859 -1.5625 7.9375 C-13.68667018 31.31581889 -18.69937086 61.78490058 -19.7890625 87.9375 C-20 91 -20 91 -21 93 C-20.01 93 -19.02 93 -18 93 C-18 96 -18 96 -19.5 97.6875 C-19.995 98.120625 -20.49 98.55375 -21 99 C-20.34 99 -19.68 99 -19 99 C-19 99.99 -19 100.98 -19 102 C-20.485 102.495 -20.485 102.495 -22 103 C-22.73323796 105.01508358 -22.73323796 105.01508358 -23 107 C-21.68 107 -20.36 107 -19 107 C-20 110 -20 110 -22 111 C-28.14084168 129.26900399 -27.13084113 151.16601364 -27.3125 170.1875 C-27.33014404 171.2185083 -27.34778809 172.2495166 -27.3659668 173.31176758 C-27.3532424 187.43700273 -22.56255293 200.23917482 -12.875 210.59765625 C-5.11809801 217.07930669 5.14521328 222.10077951 15.32884216 222.14717102 C16.94966957 222.15790398 16.94966957 222.15790398 18.60324097 222.16885376 C19.78403229 222.17154266 20.96482361 222.17423157 22.18139648 222.17700195 C24.05289619 222.18685875 24.05289619 222.18685875 25.96220398 222.19691467 C30.09850302 222.21665153 34.23476326 222.22831889 38.37109375 222.23828125 C39.79971905 222.24233127 41.22834416 222.24644826 42.65696907 222.25063133 C49.37549496 222.26968101 56.09400994 222.28390815 62.81255764 222.2922433 C70.5410566 222.30199186 78.26926733 222.32824951 85.99766487 222.36874419 C91.98686113 222.39903656 97.97597544 222.41372483 103.96524674 222.41702431 C107.53439489 222.41936141 111.10323512 222.42814363 114.67230034 222.45348549 C118.66639778 222.48138588 122.65986363 222.47689536 126.65405273 222.4699707 C127.81662598 222.48278076 128.97919922 222.49559082 130.17700195 222.50878906 C143.08104779 222.42776826 155.46316699 218.78180144 165.18359375 210.03515625 C175.85055012 198.88425479 179.38960304 186.01943152 179.3125 171 C179.31121094 169.92145752 179.30992187 168.84291504 179.30859375 167.73168945 C179.13770827 152.17577039 177.74732044 136.64928811 176.45732117 121.15336609 C176.15382917 117.42555373 175.92195883 113.74086623 176 110 C173.03 109.505 173.03 109.505 170 109 C170 108.01 170 107.02 170 106 C171.32 106 172.64 106 174 106 C174 104.68 174 103.36 174 102 C173.01 102 172.02 102 171 102 C171 101.01 171 100.02 171 99 C171.66 99 172.32 99 173 99 C173 98.01 173 97.02 173 96 C172.01 96 171.02 96 170 96 C170.15726563 95.484375 170.31453125 94.96875 170.4765625 94.4375 C176.22276823 67.67904943 164.4524682 30.14591592 153 6 C152.01 4.515 152.01 4.515 151 3 C151.33 2.01 151.66 1.02 152 0 C170.86064034 23.00583602 172.56200569 60.67151646 177 89 C181.29 88.67 185.58 88.34 190 88 C190.33 89.65 190.66 91.3 191 93 C186.38 93.99 181.76 94.98 177 96 C177.33 96.66 177.66 97.32 178 98 C183.94 97.505 183.94 97.505 190 97 C190.33 97.99 190.66 98.98 191 100 C186.51925805 103.36055646 183.39449293 103.27429625 178 103 C178.33 103.99 178.66 104.98 179 106 C181.64 106.33 184.28 106.66 187 107 C187.33 108.32 187.66 109.64 188 111 C185.04335481 112.4783226 182.25770263 112.06032783 179 112 C179.33 112.66 179.66 113.32 180 114 C180.29908187 116.52501696 180.54630677 119.03349555 180.75390625 121.56640625 C180.8520739 122.72712143 180.8520739 122.72712143 180.95222473 123.9112854 C181.1633174 126.46114048 181.36471377 129.01157922 181.5625 131.5625 C181.63003479 132.43170074 181.69756958 133.30090149 181.76715088 134.19644165 C182.70449989 146.52650216 183.32133055 158.82130043 183.375 171.1875 C183.38258331 171.85661407 183.39016663 172.52572815 183.39797974 173.21511841 C183.55388766 190.03937942 179.60059633 203.57078964 168 216 C169.51980469 216.27263672 169.51980469 216.27263672 171.0703125 216.55078125 C172.42196353 216.80421582 173.77352119 217.05814865 175.125 217.3125 C175.79015625 217.43044922 176.4553125 217.54839844 177.140625 217.66992188 C181.51942154 218.50704474 185.10913287 219.83638697 189 222 C188.67 222.99 188.34 223.98 188 225 C182.45448302 227.51619332 177.06647361 228.72647269 171.0625 229.5625 C170.20769043 229.68544434 169.35288086 229.80838867 168.47216797 229.93505859 C157.36531388 231.45695424 146.1874896 232.33117465 135 233 C134.30018005 233.04343536 133.60036011 233.08687073 132.8793335 233.13162231 C115.8296315 234.15672393 98.77525209 234.18756926 81.70166016 234.18530273 C78.50889338 234.18522213 75.3162721 234.19207711 72.12353516 234.20581055 C54.55597323 234.28008515 37.05092169 234.06898449 19.5078125 233.078125 C18.770397 233.03677618 18.03298149 232.99542736 17.27322006 232.95282555 C-27.41934606 230.38710263 -27.41934606 230.38710263 -37 224 C-36.67 223.01 -36.34 222.02 -36 221 C-29.58647876 217.97475413 -22.98184641 216.98909491 -16 216 C-16.51949219 215.40574219 -17.03898437 214.81148437 -17.57421875 214.19921875 C-28.9412046 200.68910432 -31.39337532 188.08491113 -31.3125 170.8125 C-31.31200653 170.09054443 -31.31151306 169.36858887 -31.31100464 168.62475586 C-31.28507205 156.04109648 -30.57217552 143.54026288 -29.5625 131 C-29.46154526 129.73864731 -29.46154526 129.73864731 -29.35855103 128.45181274 C-29.16426991 126.07135079 -28.96166747 123.6918203 -28.75390625 121.3125 C-28.69342102 120.59950241 -28.63293579 119.88650482 -28.57061768 119.15190125 C-28.11874373 114.23748746 -28.11874373 114.23748746 -27 112 C-28.670625 112.0309375 -28.670625 112.0309375 -30.375 112.0625 C-34 112 -34 112 -36 111 C-35.67 109.68 -35.34 108.36 -35 107 C-32.36 106.67 -29.72 106.34 -27 106 C-26.67 105.01 -26.34 104.02 -26 103 C-27.8253125 103.0928125 -27.8253125 103.0928125 -29.6875 103.1875 C-33.57750046 103.20822824 -35.83632249 102.37275814 -39 100 C-38.67 99.01 -38.34 98.02 -38 97 C-34.04 97.33 -30.08 97.66 -26 98 C-25.505 97.01 -25.505 97.01 -25 96 C-29.62 95.01 -34.24 94.02 -39 93 C-38.67 91.35 -38.34 89.7 -38 88 C-33.71 88.33 -29.42 88.66 -25 89 C-24.84966309 88.04037354 -24.69932617 87.08074707 -24.54443359 86.09204102 C-13.59026953 16.57714195 -13.59026953 16.57714195 0 0 Z " fill="#332501" transform="translate(52,8)"/>
<path d="M0 0 C6.76774811 1.14924025 11.77838869 6.68178736 16.3125 11.5625 C21.66393583 19.49843609 25.36265484 27.61595008 28.3046875 36.69921875 C29.23138542 39.70839411 29.23138542 39.70839411 31.3125 42.5625 C28.56321558 43.06673557 25.81318857 43.56603426 23.0625 44.0625 C22.28519531 44.20558594 21.50789063 44.34867188 20.70703125 44.49609375 C19.57587891 44.69912109 19.57587891 44.69912109 18.421875 44.90625 C17.73061523 45.03193359 17.03935547 45.15761719 16.32714844 45.28710938 C14.3125 45.5625 14.3125 45.5625 10.3125 45.5625 C10.3125 46.2225 10.3125 46.8825 10.3125 47.5625 C9.219375 47.789375 8.12625 48.01625 7 48.25 C2.31680716 49.39792293 -1.81802274 51.41265988 -6.15625 53.48046875 C-8.6875 54.5625 -8.6875 54.5625 -11.8125 54.9375 C-17.56670773 56.18841472 -22.48155209 60.75357813 -25.6875 65.5625 C-24.49713088 51.10801788 -18.20083327 3.80947673 0 0 Z " fill="#CAC6B9" transform="translate(60.6875,3.4375)"/>
<path d="M0 0 C6.87328175 3.17228388 12.76694108 9.08199485 15.88671875 15.98046875 C17.58371129 22.1118644 17.65666637 29.38355248 15.29296875 35.3515625 C12.10670405 40.81373056 8.96223579 45.02392555 2.68359375 46.91015625 C-4.88417295 48.47066289 -11.01405543 47.58193971 -17.45703125 43.3515625 C-23.69371273 39.07148698 -27.09386993 33.44104647 -29.45703125 26.3515625 C-30.14632863 19.15332844 -30.39346326 12.97708199 -25.9609375 7.00390625 C-18.71612353 -0.95598027 -10.60550697 -2.79890963 0 0 Z " fill="#A9CA20" transform="translate(170.45703125,74.6484375)"/>
<path d="M0 0 C1.7634375 -0.01160156 1.7634375 -0.01160156 3.5625 -0.0234375 C8.96433217 0.60268396 12.82667686 2.58977448 16.25 6.8125 C16.72953125 7.38871094 17.2090625 7.96492188 17.703125 8.55859375 C21.93296905 14.48292353 21.67554996 20.2692152 21 27.375 C18.87030132 35.15703409 14.44799769 41.15359068 7.4375 45.1875 C1.25924064 48.49613456 -5.29172517 49.71655925 -12.15234375 47.76171875 C-17.68239142 45.3522738 -20.95415195 41.50762284 -24 36.375 C-26.03287017 30.27638948 -26.12200093 22.82150511 -24.12890625 16.69921875 C-19.01414211 6.98955175 -11.35744051 -0.07472 0 0 Z " fill="#A9CA20" transform="translate(94,73.625)"/>
<path d="M0 0 C5.10516976 1.22524074 7.31659643 4.46415962 10.125 8.75 C16.00240773 19.66937346 18.99551741 31.82542721 22.125 43.75 C22.31255859 44.45769531 22.50011719 45.16539063 22.69335938 45.89453125 C25.51382587 56.6793035 25.51382587 56.6793035 24.125 60.75 C24.125 59.76 24.125 58.77 24.125 57.75 C23.26003906 57.63398437 22.39507812 57.51796875 21.50390625 57.3984375 C18.09196206 56.74365977 15.25366233 55.73381751 12.0625 54.375 C11.06089844 53.95476563 10.05929688 53.53453125 9.02734375 53.1015625 C6.125 51.75 6.125 51.75 3.77368164 50.25 C1.06652508 48.71688451 -1.12372015 48.03230382 -4.15625 47.3984375 C-5.15760986 47.18743408 -6.15896973 46.97643066 -7.19067383 46.7590332 C-8.24150146 46.54980225 -9.2923291 46.34057129 -10.375 46.125 C-11.44838623 45.90481201 -12.52177246 45.68462402 -13.62768555 45.45776367 C-20.30287881 44.13140918 -26.77094932 43.16292438 -33.58203125 42.98828125 C-35.875 42.75 -35.875 42.75 -38.875 40.75 C-35.575 40.75 -32.275 40.75 -28.875 40.75 C-28.6790625 39.98558594 -28.483125 39.22117188 -28.28125 38.43359375 C-26.43280047 31.81263874 -24.16278737 25.86976549 -20.9375 19.8125 C-20.61394531 19.19882568 -20.29039062 18.58515137 -19.95703125 17.95288086 C-16.96655206 12.5066783 -13.73342508 7.31306097 -7.875 4.75 C-6.699375 3.698125 -6.699375 3.698125 -5.5 2.625 C-2.875 0.75 -2.875 0.75 0 0 Z " fill="#CAC6BA" transform="translate(194.875,3.25)"/>
<path d="M0 0 C4.56894615 2.34130077 8.10701082 5.1388773 10 10 C10.84612893 15.32274132 10.32904397 19.96857026 7.3203125 24.4921875 C4.36038127 27.87246399 1.18714648 29.63039511 -3.2421875 30.37890625 C-8.62272456 30.65970869 -11.86496975 29.65421278 -16 26 C-19.89496294 21.69504096 -20.69091199 18.10769853 -20.453125 12.46875 C-19.51996194 7.38462021 -16.57029863 4.39083593 -12.8125 1.0625 C-8.47005347 -0.5779798 -4.56832295 -0.8665256 0 0 Z " fill="#070801" transform="translate(165,81)"/>
<path d="M0 0 C4.56370686 2.06514109 8.21552009 5.27637671 10 10 C10.77778469 15.1298833 10.79046101 19.50788021 7.875 23.9375 C4.7770773 27.60654811 1.66570946 29.61644468 -3.171875 30.3125 C-7.18112291 30.52776163 -9.63605579 30.1716718 -13.3125 28.4375 C-17.83982181 24.3313244 -20.179881 20.57019878 -20.5625 14.5 C-20.32633815 9.55746982 -18.40207958 6.48713157 -15 3 C-10.66324398 -0.84112676 -5.52279774 -0.92190228 0 0 Z " fill="#070801" transform="translate(101,81)"/>
<path d="M0 0 C1 3 1 3 -0.00390625 5.21484375 C-0.77541016 6.56255859 -0.77541016 6.56255859 -1.5625 7.9375 C-13.68667018 31.31581889 -18.69937086 61.78490058 -19.7890625 87.9375 C-20 91 -20 91 -21 93 C-20.01 93 -19.02 93 -18 93 C-18 96 -18 96 -19.5 97.6875 C-19.995 98.120625 -20.49 98.55375 -21 99 C-20.34 99 -19.68 99 -19 99 C-19 99.99 -19 100.98 -19 102 C-20.485 102.495 -20.485 102.495 -22 103 C-22.73323796 105.01508358 -22.73323796 105.01508358 -23 107 C-21.68 107 -20.36 107 -19 107 C-20 110 -20 110 -22 111 C-22.69227032 113.80980673 -22.69227032 113.80980673 -23.125 117.0625 C-23.29257812 118.16722656 -23.46015625 119.27195312 -23.6328125 120.41015625 C-23.75398438 121.26480469 -23.87515625 122.11945313 -24 123 C-24.33 123 -24.66 123 -25 123 C-25.14285714 114.42857143 -25.14285714 114.42857143 -24 111 C-25.485 111.495 -25.485 111.495 -27 112 C-33.54098361 112.2295082 -33.54098361 112.2295082 -36 111 C-35.67 109.68 -35.34 108.36 -35 107 C-32.36 106.67 -29.72 106.34 -27 106 C-26.67 105.01 -26.34 104.02 -26 103 C-27.8253125 103.0928125 -27.8253125 103.0928125 -29.6875 103.1875 C-33.57750046 103.20822824 -35.83632249 102.37275814 -39 100 C-38.67 99.01 -38.34 98.02 -38 97 C-34.04 97.33 -30.08 97.66 -26 98 C-25.505 97.01 -25.505 97.01 -25 96 C-29.62 95.01 -34.24 94.02 -39 93 C-38.67 91.35 -38.34 89.7 -38 88 C-33.71 88.33 -29.42 88.66 -25 89 C-24.84966309 88.04037354 -24.69932617 87.08074707 -24.54443359 86.09204102 C-13.59026953 16.57714195 -13.59026953 16.57714195 0 0 Z " fill="#6E6859" transform="translate(52,8)"/>
<path d="M0 0 C14.31346789 13.10659876 17.22374376 39.1797127 20.75 57.375 C20.89879608 58.1420929 21.04759216 58.90918579 21.20089722 59.69952393 C23.07530667 69.43822709 24.67195707 79.16987829 26 89 C32.435 88.505 32.435 88.505 39 88 C39.33 89.65 39.66 91.3 40 93 C35.38 93.99 30.76 94.98 26 96 C26.495 96.99 26.495 96.99 27 98 C32.94 97.505 32.94 97.505 39 97 C39.33 97.99 39.66 98.98 40 100 C35.51925805 103.36055646 32.39449293 103.27429625 27 103 C27.33 103.99 27.66 104.98 28 106 C30.64 106.33 33.28 106.66 36 107 C36.33 108.32 36.66 109.64 37 111 C33.30713939 112.8464303 29.45123256 112.39620952 25.5390625 111.328125 C23.3413427 110.59324078 21.16539511 109.82491242 19 109 C19 108.01 19 107.02 19 106 C20.32 106 21.64 106 23 106 C23 104.68 23 103.36 23 102 C22.01 102 21.02 102 20 102 C20 101.01 20 100.02 20 99 C20.66 99 21.32 99 22 99 C22 98.01 22 97.02 22 96 C21.01 96 20.02 96 19 96 C19.23589844 95.2265625 19.23589844 95.2265625 19.4765625 94.4375 C25.22276823 67.67904943 13.4524682 30.14591592 2 6 C1.34 5.01 0.68 4.02 0 3 C0 2.01 0 1.02 0 0 Z " fill="#7A7463" transform="translate(203,8)"/>
<path d="M0 0 C4.24590269 0.15197862 7.04633533 3.33025342 10.0625 6 C11.2128333 6.99691172 12.36388837 7.99299113 13.515625 8.98828125 C14.09376953 9.49053223 14.67191406 9.9927832 15.26757812 10.51025391 C19.43725481 14.0958468 23.73039659 17.53469062 28 21 C27.82666627 24.85494213 27.09045724 25.91696554 24.19140625 28.578125 C22.99118072 29.48139097 21.78091479 30.3714238 20.5625 31.25 C19.28260847 32.20492802 18.00528267 33.16330395 16.73046875 34.125 C16.09802246 34.60195312 15.46557617 35.07890625 14.81396484 35.5703125 C11.34348951 38.30558889 8.22458448 41.40911433 5.0859375 44.515625 C3 46 3 46 0.8515625 45.859375 C-1 45 -1 45 -3 43 C-2.80405941 40.34138843 -2.20115093 39.2110784 -0.35766602 37.27661133 C0.33657471 36.7173999 1.03081543 36.15818848 1.74609375 35.58203125 C2.50083984 34.96779297 3.25558594 34.35355469 4.03320312 33.72070312 C4.82662109 33.09099609 5.62003906 32.46128906 6.4375 31.8125 C7.22705078 31.17119141 8.01660156 30.52988281 8.83007812 29.86914062 C14.63546723 25.18226638 14.63546723 25.18226638 17 24 C15.43121427 19.43429255 11.7632386 17.17394082 8.0625 14.375 C7.42892578 13.88515625 6.79535156 13.3953125 6.14257812 12.890625 C3.47244554 10.83538099 0.80572626 8.87048417 -2 7 C-2.3125 4.5 -2.3125 4.5 -2 2 C-1.34 1.34 -0.68 0.68 0 0 Z " fill="#625F55" transform="translate(95,141)"/>
<path d="M0 0 C0.99 0 1.98 0 3 0 C2.90912109 1.22702637 2.81824219 2.45405273 2.72460938 3.71826172 C0.53777602 31.89185873 0.53777602 31.89185873 -0.375 60.125 C-0.39530273 61.58268799 -0.39530273 61.58268799 -0.41601562 63.06982422 C-0.3234877 77.54787485 5.08680155 89.36581866 14.81640625 99.87109375 C16.92559217 102.02848037 16.92559217 102.02848037 19.27734375 103.66015625 C19.84582031 104.10230469 20.41429688 104.54445313 21 105 C21 105.66 21 106.32 21 107 C13.80724876 106.63426689 13.80724876 106.63426689 10.375 103.9375 C9.59125 102.968125 8.8075 101.99875 8 101 C7.50628906 100.40832031 7.01257812 99.81664062 6.50390625 99.20703125 C-3.03528551 87.28898868 -4.38207098 74.67256631 -4.3125 59.8125 C-4.31200653 59.0902121 -4.31151306 58.36792419 -4.31100464 57.62374878 C-4.28512885 45.06096882 -3.57347699 32.58172252 -2.5625 20.0625 C-2.46154526 18.80755234 -2.46154526 18.80755234 -2.35855103 17.5272522 C-2.16390305 15.15423216 -1.96141396 12.78208375 -1.75390625 10.41015625 C-1.69342102 9.70231995 -1.63293579 8.99448364 -1.57061768 8.26519775 C-1.30083886 5.33152302 -0.93606021 2.80818064 0 0 Z " fill="#010100" transform="translate(25,119)"/>
<path d="M0 0 C0.99 0 1.98 0 3 0 C4.18066139 3.54198417 4.44898045 6.96969599 4.75390625 10.6640625 C4.81935135 11.43645767 4.88479645 12.20885284 4.95222473 13.00465393 C5.16293699 15.54424292 5.36453779 18.08438613 5.5625 20.625 C5.66380219 21.92505478 5.66380219 21.92505478 5.76715088 23.25137329 C6.70527523 35.56329912 7.32143459 47.83932136 7.375 60.1875 C7.38637497 61.19130707 7.38637497 61.19130707 7.39797974 62.21539307 C7.54496352 78.07639099 4.16380478 92.23274631 -7 104 C-10.08888522 106.05925681 -10.70935927 106.2390374 -14.1875 106.125 C-15.445625 106.08375 -16.70375 106.0425 -18 106 C-17.34 105.360625 -16.68 104.72125 -16 104.0625 C-14.99666043 103.04494882 -13.99716845 102.02359942 -13 101 C-12.37222656 100.36835938 -11.74445313 99.73671875 -11.09765625 99.0859375 C-0.40093176 87.79380992 3.39196966 75.48582367 3.3125 60.25 C3.31056641 58.65309326 3.31056641 58.65309326 3.30859375 57.02392578 C3.09994919 37.99293344 1.40515121 18.97203275 0 0 Z " fill="#010101" transform="translate(228,119)"/>
<path d="M0 0 C2.25 -0.0625 2.25 -0.0625 5 1 C9.51357918 7.86982052 11.41654954 16.87728392 11 25 C7.04095497 24.23204965 3.11559159 23.35008694 -0.8125 22.4375 C-1.97394531 22.16808594 -3.13539063 21.89867188 -4.33203125 21.62109375 C-5.21246094 21.41613281 -6.09289062 21.21117188 -7 21 C-6.42973071 13.30136452 -4.30684157 6.46026235 0 0 Z " fill="#F99295" transform="translate(190,28)"/>
<path d="M0 0 C3.56742552 1.52889665 4.24999023 3.47177658 5.7734375 6.93359375 C7.79392842 12.13311397 8.91812972 15.66408529 7.625 21.125 C5.52248139 21.79684618 3.41792237 22.46230968 1.3125 23.125 C-0.44513672 23.681875 -0.44513672 23.681875 -2.23828125 24.25 C-5.375 25.125 -5.375 25.125 -8.375 25.125 C-9.04223682 16.91428025 -7.4169972 9.76329954 -4.375 2.125 C-2.375 0.125 -2.375 0.125 0 0 Z " fill="#F99295" transform="translate(63.375,27.875)"/>
<path d="M0 0 C1 3 1 3 -0.00390625 5.21484375 C-0.77541016 6.56255859 -0.77541016 6.56255859 -1.5625 7.9375 C-12.61492847 29.24924286 -15.94897933 54.95879787 -19.30102539 78.47558594 C-19.44929276 79.48837364 -19.44929276 79.48837364 -19.60055542 80.5216217 C-19.87066581 82.37058304 -20.13225842 84.22078293 -20.39331055 86.07104492 C-21 89 -21 89 -23 92 C-25.53292307 88.20061539 -24.84478593 85.95748426 -24.09375 81.7109375 C-23.91441673 80.62009605 -23.91441673 80.62009605 -23.73146057 79.50721741 C-23.33496677 77.12719779 -22.91895236 74.75116234 -22.5 72.375 C-22.36028778 71.56410919 -22.22057556 70.75321838 -22.07662964 69.91775513 C-12.68405951 15.4717649 -12.68405951 15.4717649 0 0 Z " fill="#020202" transform="translate(52,8)"/>
<path d="M0 0 C14.29807991 13.09250824 17.21601883 39.13501597 20.75 57.3125 C20.89879608 58.07532288 21.04759216 58.83814575 21.20089722 59.62408447 C23.15350076 69.71373383 24.75989465 79.79722993 26 90 C24.515 90.495 24.515 90.495 23 91 C21.67992904 85.49040808 20.63342317 79.97219099 19.73828125 74.37890625 C14.66958684 37.06192577 14.66958684 37.06192577 0 3 C0 2.01 0 1.02 0 0 Z " fill="#020101" transform="translate(203,8)"/>
<path d="M0 0 C11.88 0 23.76 0 36 0 C36 1.98 36 3.96 36 6 C34.2670702 7.7329298 32.03785664 7.12820046 29.72851562 7.13894653 C28.99310547 7.1369223 28.25769531 7.13489807 27.5 7.1328125 C26.74912109 7.13376923 25.99824219 7.13472595 25.22460938 7.13571167 C23.63411373 7.13639338 22.04361533 7.13453972 20.453125 7.13037109 C18.01035345 7.12502267 15.56776579 7.13031634 13.125 7.13671875 C11.58333293 7.13605797 10.04166597 7.1347768 8.5 7.1328125 C7.76458984 7.13483673 7.02917969 7.13686096 6.27148438 7.13894653 C1.11495161 7.11495161 1.11495161 7.11495161 0 6 C0 4.02 0 2.04 0 0 Z " fill="#646156" transform="translate(129,190)"/>
<path d="M0 0 C0.66 0.33 1.32 0.66 2 1 C1.625 2.9375 1.625 2.9375 1 5 C0.01 5.495 0.01 5.495 -1 6 C-0.55296014 10.47883696 -0.55296014 10.47883696 2 14 C4.68839385 14.26991906 7.29141936 14.08737357 10 14 C10.66 12.35 11.32 10.7 12 9 C12.33 9 12.66 9 13 9 C13.1875 11.875 13.1875 11.875 13 15 C9.31044663 17.45970225 6.28388877 17.57750613 2 17 C-0.5 15.625 -0.5 15.625 -2 14 C-2 13.34 -2 12.68 -2 12 C-2.66 12 -3.32 12 -4 12 C-4.28875 12.639375 -4.5775 13.27875 -4.875 13.9375 C-6 16 -6 16 -8 17 C-15.46666667 17.35555556 -15.46666667 17.35555556 -19 15 C-19.1875 11.875 -19.1875 11.875 -19 9 C-18.690625 9.639375 -18.38125 10.27875 -18.0625 10.9375 C-17.1654837 12.93610821 -17.1654837 12.93610821 -16 14 C-13.14246998 14.23044597 -10.79711611 14.41001903 -8 14 C-5.87105376 12.38451799 -5.87105376 12.38451799 -5 10 C-5 8.68 -5 7.36 -5 6 C-5.99 5.34 -6.98 4.68 -8 4 C-8 3.01 -8 2.02 -8 1 C-5.26094655 -0.36952673 -3.02912668 -0.12621361 0 0 Z " fill="#878173" transform="translate(131,106)"/>
<path d="M0 0 C-0.825 0.474375 -1.65 0.94875 -2.5 1.4375 C-8.37455244 5.35386829 -13.96253407 11.15569697 -16 18 C-16.28867792 20.62805842 -16.50404038 23.17910831 -16.625 25.8125 C-16.66367188 26.50537109 -16.70234375 27.19824219 -16.7421875 27.91210938 C-16.83573568 29.60767015 -16.91892364 31.30379712 -17 33 C-17.66 33 -18.32 33 -19 33 C-21.60316965 27.7936607 -20.88481934 19.7219106 -19.12890625 14.3203125 C-15.68960267 7.8025503 -8.39276705 -2.9974168 0 0 Z " fill="#8BB50A" transform="translate(89,76)"/>
<path d="M0 0 C7.78425203 0.278009 12.07937127 3.04890006 17.5078125 8.51953125 C23.42690352 15.23610459 24.32285912 20.43128452 24.203125 29.171875 C24 32 24 32 23 34 C22.34 34 21.68 34 21 34 C20.98582031 33.10539062 20.97164062 32.21078125 20.95703125 31.2890625 C20.56859516 21.44168261 19.10538378 13.50509604 11.6875 6.5625 C8.07866415 3.75651089 4.33724786 2.36965722 0 1 C0 0.67 0 0.34 0 0 Z " fill="#89B30B" transform="translate(163,74)"/>
<path d="M0 0 C-2.33651203 2.67138672 -4.51129025 3.80996727 -7.8125 5.0625 C-8.70066406 5.40152344 -9.58882812 5.74054687 -10.50390625 6.08984375 C-13.31982671 7.11661913 -16.14373929 8.09118978 -19 9 C-23.08329173 10.29369846 -23.08329173 10.29369846 -27 12 C-29.58175825 13.29087913 -32.25328582 14.12604549 -35 15 C-35 14.01 -35 13.02 -35 12 C-33.58847656 11.40251953 -33.58847656 11.40251953 -32.1484375 10.79296875 C-30.890583 10.25791124 -29.63277286 9.72274942 -28.375 9.1875 C-27.75753906 8.92646484 -27.14007813 8.66542969 -26.50390625 8.39648438 C-23.52562144 7.12679454 -20.6243994 5.80497661 -17.75 4.3125 C-14.61207237 2.81485272 -12.43469832 2.75466441 -9 3 C-9 2.34 -9 1.68 -9 1 C-5.92677456 0.08941469 -3.19902639 -0.08886184 0 0 Z " fill="#E8E5DB" transform="translate(80,48)"/>
<path d="M0 0 C0 1.32 0 2.64 0 4 C-6.93 5.485 -6.93 5.485 -14 7 C-13.67 7.66 -13.34 8.32 -13 9 C-13.99 9.33 -14.98 9.66 -16 10 C-18.09350689 6.5980513 -18.17942163 3.94727588 -18 0 C-17.67 0.66 -17.34 1.32 -17 2 C-16.10796875 1.77183594 -15.2159375 1.54367188 -14.296875 1.30859375 C-13.12640625 1.02113281 -11.9559375 0.73367187 -10.75 0.4375 C-9.58984375 0.14746094 -8.4296875 -0.14257812 -7.234375 -0.44140625 C-4.27909017 -0.95179964 -2.75565899 -1.02996165 0 0 Z " fill="#6F6A5B" transform="translate(243,97)"/>
<path d="M0 0 C-1 3 -1 3 -3 4 C-3.69227032 6.80980673 -3.69227032 6.80980673 -4.125 10.0625 C-4.37636719 11.71958984 -4.37636719 11.71958984 -4.6328125 13.41015625 C-4.75398438 14.26480469 -4.87515625 15.11945313 -5 16 C-5.33 16 -5.66 16 -6 16 C-6.14285714 7.42857143 -6.14285714 7.42857143 -5 4 C-5.99 4.33 -6.98 4.66 -8 5 C-14.54098361 5.2295082 -14.54098361 5.2295082 -17 4 C-16.67 2.68 -16.34 1.36 -16 0 C-14.27185839 -0.19672365 -12.54240803 -0.38196799 -10.8125 -0.5625 C-9.84957031 -0.66691406 -8.88664062 -0.77132812 -7.89453125 -0.87890625 C-5.05766623 -0.99758751 -2.74576329 -0.67765639 0 0 Z " fill="#847E6E" transform="translate(33,115)"/>
<path d="M0 0 C1 3 1 3 -0.51171875 6.1171875 C-1.23078174 7.37335958 -1.95645464 8.62576321 -2.6875 9.875 C-6.54584194 16.73212731 -9.04002239 23.3535084 -11 31 C-11.99 30.67 -12.98 30.34 -14 30 C-11.4169912 19.92286698 -7.5515823 7.5515823 0 0 Z " fill="#000000" transform="translate(180,14)"/>
<path d="M0 0 C3.86754678 3.37436967 5.85413673 7.08958984 8.0625 11.625 C8.41248047 12.33269531 8.76246094 13.04039063 9.12304688 13.76953125 C11.66759395 19.03113707 13.68257574 24.29116154 15 30 C14.01 30.33 13.02 30.66 12 31 C11.72027344 30.06800781 11.44054687 29.13601562 11.15234375 28.17578125 C8.63403584 20.07702269 5.6437366 12.96069131 1.35546875 5.609375 C0 3 0 3 0 0 Z " fill="#020202" transform="translate(75,14)"/>
<path d="M0 0 C0.99 0 1.98 0 3 0 C3.33 0.99 3.66 1.98 4 3 C6.64 3.33 9.28 3.66 12 4 C12.33 5.32 12.66 6.64 13 8 C9.97562661 9.5121867 7.33758466 9.17263369 4 9 C1.5625 8 1.5625 8 0 7 C0 4.69 0 2.38 0 0 Z " fill="#666153" transform="translate(227,111)"/>
<path d="M0 0 C0.66 0.33 1.32 0.66 2 1 C1.67 2.32 1.34 3.64 1 5 C-1.8125 5.625 -1.8125 5.625 -5 6 C-5.99 5.34 -6.98 4.68 -8 4 C-8 3.01 -8 2.02 -8 1 C-5.26094655 -0.36952673 -3.02912668 -0.12621361 0 0 Z " fill="#FA8C8F" transform="translate(131,106)"/>
<path d="M0 0 C3.69230769 0.69230769 3.69230769 0.69230769 5 2 C5.04063832 3.66617115 5.042721 5.33388095 5 7 C2.625 7.625 2.625 7.625 0 8 C-0.66 7.34 -1.32 6.68 -2 6 C-1.44444444 1.44444444 -1.44444444 1.44444444 0 0 Z " fill="#E7E7E7" transform="translate(158,83)"/>
<path d="M0 0 C2.125 0.375 2.125 0.375 4 1 C4.625 3.375 4.625 3.375 5 6 C4.34 6.66 3.68 7.32 3 8 C0.375 7.625 0.375 7.625 -2 7 C-2.125 4.625 -2.125 4.625 -2 2 C-1.34 1.34 -0.68 0.68 0 0 Z " fill="#E7E7E7" transform="translate(95,83)"/>
<path d="M0 0 C0.66 0.33 1.32 0.66 2 1 C0.7315625 1.495 0.7315625 1.495 -0.5625 2 C-4.45347571 4.26384041 -6.67359383 6.80131133 -9.484375 10.2578125 C-11 12 -11 12 -13 13 C-12.68048573 9.8048573 -12.33047592 8.33442583 -10.0390625 6.015625 C-9.24242187 5.43296875 -8.44578125 4.8503125 -7.625 4.25 C-6.83351563 3.65703125 -6.04203125 3.0640625 -5.2265625 2.453125 C-3 1 -3 1 0 0 Z " fill="#DBD8C9" transform="translate(49,57)"/>
<path d="M0 0 C0.33 1.32 0.66 2.64 1 4 C1.66 4 2.32 4 3 4 C3 7.96 3 11.92 3 16 C2.34 16 1.68 16 1 16 C-0.50156874 12.99686252 -0.09281204 10.20932478 -0.0625 6.875 C-0.05347656 5.59367187 -0.04445313 4.31234375 -0.03515625 2.9921875 C-0.02355469 2.00476563 -0.01195313 1.01734375 0 0 Z " fill="#97BD1E" transform="translate(69,93)"/>
<path d="M0 0 C0.33 0 0.66 0 1 0 C1.33 6.6 1.66 13.2 2 20 C1.01 20 0.02 20 -1 20 C-1 19.01 -1 18.02 -1 17 C-0.34 17 0.32 17 1 17 C1 16.01 1 15.02 1 14 C0.01 14 -0.98 14 -2 14 C-1.34 9.38 -0.68 4.76 0 0 Z " fill="#A39E8F" transform="translate(224,90)"/>
<path d="M0 0 C0.33 0 0.66 0 1 0 C1.02693575 2.12493141 1.04636628 4.24995912 1.0625 6.375 C1.07410156 7.55835937 1.08570313 8.74171875 1.09765625 9.9609375 C1 13 1 13 0 15 C-0.66 15 -1.32 15 -2 15 C-2.05429959 13.25034642 -2.09292823 11.50020213 -2.125 9.75 C-2.15980469 8.28820312 -2.15980469 8.28820312 -2.1953125 6.796875 C-1.99862781 3.9803502 -1.44568916 2.39050964 0 0 Z " fill="#96BD1C" transform="translate(186,93)"/>
<path d="M0 0 C0 0.66 0 1.32 0 2 C-1.155 2.2475 -2.31 2.495 -3.5 2.75 C-7.47137543 3.71811109 -10.78621027 5.2918277 -14.3359375 7.29296875 C-14.88507812 7.52628906 -15.43421875 7.75960937 -16 8 C-16.66 7.67 -17.32 7.34 -18 7 C-12.84557193 2.17811568 -7.00254981 0 0 0 Z " fill="#DAD0C5" transform="translate(71,49)"/>
<path d="M0 0 C1.32 0.33 2.64 0.66 4 1 C2.92250558 1.82022749 1.83770492 2.63086169 0.75 3.4375 C0.14671875 3.88996094 -0.4565625 4.34242187 -1.078125 4.80859375 C-4.71159616 7.06105046 -8.04523226 7.11782589 -12.25 7.0625 C-13.14203125 7.05347656 -14.0340625 7.04445313 -14.953125 7.03515625 C-15.62859375 7.02355469 -16.3040625 7.01195313 -17 7 C-17 6.67 -17 6.34 -17 6 C-15.78763672 5.81824219 -15.78763672 5.81824219 -14.55078125 5.6328125 C-13.48214844 5.46523437 -12.41351563 5.29765625 -11.3125 5.125 C-10.25675781 4.96257812 -9.20101562 4.80015625 -8.11328125 4.6328125 C-5.20205086 4.04106931 -2.71044393 3.1968194 0 2 C0 1.34 0 0.68 0 0 Z " fill="#B7D451" transform="translate(178,115)"/>
<path d="M0 0 C0.33 0 0.66 0 1 0 C1.0270043 1.45823212 1.04639787 2.91660675 1.0625 4.375 C1.07410156 5.18710938 1.08570313 5.99921875 1.09765625 6.8359375 C1 9 1 9 0 11 C0.99 11 1.98 11 3 11 C3 14 3 14 1.5 15.6875 C1.005 16.120625 0.51 16.55375 0 17 C0.66 17.33 1.32 17.66 2 18 C1.01 18 0.02 18 -1 18 C-1.09945415 11.88909517 -1.0712828 6.02596573 0 0 Z " fill="#9F9A8C" transform="translate(31,90)"/>
<path d="M0 0 C0.66 0.33 1.32 0.66 2 1 C2 1.66 2 2.32 2 3 C6.79872101 5.23940314 11.82855847 6.0560864 17 7 C17 7.33 17 7.66 17 8 C10.45336558 8.54555287 5.47621253 7.8277608 0 4 C-0.33 3.34 -0.66 2.68 -1 2 C-0.67 1.34 -0.34 0.68 0 0 Z " fill="#B7D44F" transform="translate(76,114)"/>
<path d="M0 0 C1 3 1 3 -0.21484375 5.69921875 C-0.78332031 6.68535156 -1.35179687 7.67148437 -1.9375 8.6875 C-2.50339844 9.68136719 -3.06929687 10.67523438 -3.65234375 11.69921875 C-4.31943359 12.83810547 -4.31943359 12.83810547 -5 14 C-5.66 13.67 -6.32 13.34 -7 13 C-5.58832253 7.73829306 -3.25149768 4.27828642 0 0 Z " fill="#060605" transform="translate(180,14)"/>
<path d="M0 0 C0.66 0 1.32 0 2 0 C0.44499019 3.81684226 -2.03595495 6.19195732 -5 9 C-5.99 8.67 -6.98 8.34 -8 8 C-6.6106395 4.52659875 -5.38754843 3.48205244 -2 2 C-1.34 1.34 -0.68 0.68 0 0 Z " fill="#898780" transform="translate(189,6)"/>
<path d="M0 0 C0.66 0.33 1.32 0.66 2 1 C-2.53669968 4.01679014 -6.68972746 6.53967505 -12 8 C-12 7.01 -12 6.02 -12 5 C-10.04578965 4.13644222 -8.08648653 3.28440066 -6.125 2.4375 C-5.03445312 1.96183594 -3.94390625 1.48617187 -2.8203125 0.99609375 C-1.88960937 0.66738281 -0.95890625 0.33867188 0 0 Z " fill="#E1DED1" transform="translate(57,55)"/>
<path d="M0 0 C0.886875 0.103125 1.77375 0.20625 2.6875 0.3125 C2.6875 0.6425 2.6875 0.9725 2.6875 1.3125 C1.0375 1.3125 -0.6125 1.3125 -2.3125 1.3125 C-2.51875 1.869375 -2.725 2.42625 -2.9375 3 C-4.86250774 6.23751302 -7.35100902 7.99481141 -10.3125 10.3125 C-8.60190472 4.86969683 -5.99830401 0.56587774 0 0 Z " fill="#AEABA2" transform="translate(61.3125,3.6875)"/>
<path d="M0 0 C0 0.66 0 1.32 0 2 C-3.3 2.66 -6.6 3.32 -10 4 C-7.11599467 -1.76801067 -5.91158408 -1.15661428 0 0 Z " fill="#1F1704" transform="translate(215,225)"/>
<path d="M0 0 C0.66666667 1.33333333 1.33333333 2.66666667 2 4 C2.37125 4.680625 2.7425 5.36125 3.125 6.0625 C4 8 4 8 4 11 C1 10 1 10 -0.6875 6.9375 C-1.120625 5.968125 -1.55375 4.99875 -2 4 C-1.34 4 -0.68 4 0 4 C0 2.68 0 1.36 0 0 Z " fill="#A9CC36" transform="translate(72,105)"/>
<path d="M0 0 C0.98484375 0.00902344 1.9696875 0.01804688 2.984375 0.02734375 C4.10585937 0.04474609 4.10585937 0.04474609 5.25 0.0625 C5.25 0.3925 5.25 0.7225 5.25 1.0625 C4.05375 1.18625 2.8575 1.31 1.625 1.4375 C-2.02596813 1.88575054 -5.29524899 2.76696837 -8.75 4.0625 C-9.08 3.0725 -9.41 2.0825 -9.75 1.0625 C-6.43929162 0.06140485 -3.44915231 -0.04106134 0 0 Z " fill="#E9E7DF" transform="translate(90.75,45.9375)"/>
<path d="M0 0 C1.98 0.99 3.96 1.98 6 3 C6 3.66 6 4.32 6 5 C4.1858073 4.71905418 2.37364999 4.42493567 0.5625 4.125 C-0.95150391 3.88136719 -0.95150391 3.88136719 -2.49609375 3.6328125 C-3.32238281 3.42398438 -4.14867187 3.21515625 -5 3 C-5.33 2.34 -5.66 1.68 -6 1 C-3.03 1.495 -3.03 1.495 0 2 C0 1.34 0 0.68 0 0 Z " fill="#221907" transform="translate(46,224)"/>
<path d="M0 0 C0.99 0 1.98 0 3 0 C1.125 4.75 1.125 4.75 0 7 C-0.99 7 -1.98 7 -3 7 C-1.125 1.125 -1.125 1.125 0 0 Z " fill="#A7CA35" transform="translate(183,108)"/>
<path d="M0 0 C0.33 0 0.66 0 1 0 C1 2.31 1 4.62 1 7 C-0.65 6.67 -2.3 6.34 -4 6 C-4 5.01 -4 4.02 -4 3 C-2.68 3 -1.36 3 0 3 C0 2.01 0 1.02 0 0 Z " fill="#A29D8D" transform="translate(226,111)"/>
<path d="M0 0 C5.71241466 0.38728235 8.73688282 0.87010523 13 5 C12.01 5.495 12.01 5.495 11 6 C8.61334121 4.71827583 6.31479586 3.39712623 4 2 C2.67353844 1.3197633 1.34391123 0.64507739 0 0 Z " fill="#92B915" transform="translate(163,74)"/>
<path d="M0 0 C0.33 0 0.66 0 1 0 C2.61050328 8.03501094 2.61050328 8.03501094 0.0625 12.0625 C-0.618125 12.701875 -1.29875 13.34125 -2 14 C-1.03644647 4.58997722 -1.03644647 4.58997722 0 0 Z " fill="#A29E92" transform="translate(37,55)"/>
<path d="M0 0 C0.33 0 0.66 0 1 0 C1 1.98 1 3.96 1 6 C-1.75924185 7.80411967 -2.88972103 8.0127245 -6.25 7.625 C-7.1575 7.41875 -8.065 7.2125 -9 7 C-9 6.67 -9 6.34 -9 6 C-5.535 5.505 -5.535 5.505 -2 5 C-1.34 3.35 -0.68 1.7 0 0 Z " fill="#8E897B" transform="translate(143,115)"/>
<path d="M0 0 C0.28875 0.61875 0.5775 1.2375 0.875 1.875 C1.93720042 4.13325765 1.93720042 4.13325765 4 6 C5.98821313 6.39764263 7.98944339 6.73775349 10 7 C10 7.33 10 7.66 10 8 C3.375 8.25 3.375 8.25 0 6 C-0.1875 2.875 -0.1875 2.875 0 0 Z " fill="#7F7A6B" transform="translate(112,115)"/>
<path d="M0 0 C1.32 0 2.64 0 4 0 C3.67 1.32 3.34 2.64 3 4 C1.35 4.33 -0.3 4.66 -2 5 C-1.34 4.67 -0.68 4.34 0 4 C0 2.68 0 1.36 0 0 Z " fill="#FA8387" transform="translate(129,107)"/>
<path d="M0 0 C0 0.66 0 1.32 0 2 C-3.3 2.66 -6.6 3.32 -10 4 C-9 2 -9 2 -6.6875 0.875 C-4 0 -4 0 0 0 Z " fill="#E1DED3" transform="translate(69,51)"/>
<path d="M0 0 C-3.96 1.98 -3.96 1.98 -8 4 C-8 3.01 -8 2.02 -8 1 C-4.59449725 -1.06762667 -4.18836538 -1.04709135 0 0 Z " fill="#92B917" transform="translate(89,76)"/>
<path d="" fill="#0B0A0A" transform="translate(0,0)"/>
<path d="" fill="#0B0A0A" transform="translate(0,0)"/>
<path d="" fill="#0B0B0A" transform="translate(0,0)"/>
<path d="" fill="#0B0B0A" transform="translate(0,0)"/>
<path d="" fill="#000000" transform="translate(0,0)"/>
<path d="" fill="#0B0B0B" transform="translate(0,0)"/>
<path d="" fill="#0B0B0B" transform="translate(0,0)"/>
<path d="" fill="#000000" transform="translate(0,0)"/>
<path d="" fill="#000000" transform="translate(0,0)"/>
<path d="" fill="#0F0F0E" transform="translate(0,0)"/>
<path d="" fill="#0F0F0E" transform="translate(0,0)"/>
<path d="" fill="#000000" transform="translate(0,0)"/>
<path d="" fill="#000000" transform="translate(0,0)"/>
<path d="" fill="#000000" transform="translate(0,0)"/>
</svg>
