<?xml version="1.0" encoding="UTF-8"?>
<svg version="1.1" xmlns="http://www.w3.org/2000/svg" width="256" height="256">
<path d="M0 0 C11.88925741 5.82330975 19.1983198 20.27336263 23.33544922 32.33178711 C24.27116936 35.20873121 25.15384302 38.09540344 26 41 C26.66 40.67 27.32 40.34 28 40 C30.2072923 39.92907158 32.41667452 39.91584975 34.625 39.9375 C35.81351562 39.94652344 37.00203125 39.95554688 38.2265625 39.96484375 C39.14179687 39.97644531 40.05703125 39.98804688 41 40 C41 39.67 41 39.34 41 39 C55.52 39 70.04 39 85 39 C85 39.33 85 39.66 85 40 C85.91523438 40 86.83046875 40 87.7734375 40 C91.84895833 40 95.92447917 40 100 40 C100.35191406 38.98421875 100.70382813 37.9684375 101.06640625 36.921875 C105.67119027 23.9449003 111.24130152 11.13852223 122 2 C126.15492628 0.33907739 129.54910577 -0.80116096 134 0 C144.91038524 5.93489258 148.62671569 20.05578378 152.0625 31.1875 C157.98481598 51.33403806 164 73.88485758 164 95 C170.435 94.01 170.435 94.01 177 93 C177.33 94.65 177.66 96.3 178 98 C174.04 98.66 170.08 99.32 166 100 C165.67 100.99 165.34 101.98 165 103 C170.94 102.505 170.94 102.505 177 102 C177.33 102.99 177.66 103.98 178 105 C173.89542386 107.98514628 171.02254631 108.2954439 166 108 C166 108.99 166 109.98 166 111 C168.64 111.33 171.28 111.66 174 112 C174.33 113.32 174.66 114.64 175 116 C172.29120665 117.35439668 169.99066732 117.06501451 167 117 C167.08564209 117.85529297 167.17128418 118.71058594 167.25952148 119.59179688 C170.71349381 154.23880088 170.71349381 154.23880088 171 164 C171.02723145 164.9079834 171.05446289 165.8159668 171.08251953 166.75146484 C171.57819603 186.17013721 170.779712 202.62757872 158.234375 218.40625 C156.92205214 219.99413247 156.92205214 219.99413247 156 222 C156.68964844 222.03738281 157.37929687 222.07476562 158.08984375 222.11328125 C164.48646465 222.56078148 170.03070248 223.65649801 176 226 C176 227.32 176 228.64 176 230 C170.20958906 232.08505587 164.58546187 233.6504152 158.5 234.5625 C157.69739746 234.68544434 156.89479492 234.80838867 156.06787109 234.93505859 C145.10488629 236.52495118 134.05210711 237.32572759 123 238 C122.01480377 238.06515305 122.01480377 238.06515305 121.00970459 238.13162231 C103.69389924 239.25200437 86.3569799 239.18746702 69.01318359 239.18530273 C65.61273816 239.18522207 62.21242917 239.19208394 58.81201172 239.20581055 C40.80643124 239.27728293 22.85816541 239.12929572 4.87890625 238.078125 C4.16850567 238.03677618 3.45810509 237.99542736 2.72617722 237.95282555 C-41.5353596 235.30976027 -41.5353596 235.30976027 -51 229 C-50 226 -50 226 -48.3203125 225.0859375 C-42.23601711 223.11557849 -36.37754916 222.34569893 -30 222 C-30.804375 220.7934375 -30.804375 220.7934375 -31.625 219.5625 C-31.98851563 219.00949219 -32.35203125 218.45648438 -32.7265625 217.88671875 C-33.60978141 216.57814595 -34.5237433 215.29000575 -35.4609375 214.01953125 C-49.9581107 193.8191554 -45.344438 166.27609875 -43.5625 142.9375 C-43.4614093 141.610103 -43.4614093 141.610103 -43.35827637 140.25588989 C-43.16120174 137.70017095 -42.95909611 135.14492312 -42.75390625 132.58984375 C-42.69342606 131.82711151 -42.63294586 131.06437927 -42.57063293 130.27853394 C-42.20125584 125.82113342 -41.67578446 121.42156121 -41 117 C-41.94875 117.020625 -42.8975 117.04125 -43.875 117.0625 C-47 117 -47 117 -49 116 C-48.67 114.68 -48.34 113.36 -48 112 C-45.36 111.67 -42.72 111.34 -40 111 C-40 110.01 -40 109.02 -40 108 C-41.5778125 108.0928125 -41.5778125 108.0928125 -43.1875 108.1875 C-47.15816493 107.9922214 -48.84196969 107.29674932 -52 105 C-51.67 104.01 -51.34 103.02 -51 102 C-47.04 102.33 -43.08 102.66 -39 103 C-39.33 102.01 -39.66 101.02 -40 100 C-43.96 99.34 -47.92 98.68 -52 98 C-51.67 96.35 -51.34 94.7 -51 93 C-46.71 93.66 -42.42 94.32 -38 95 C-37.83564453 92.26009766 -37.83564453 92.26009766 -37.66796875 89.46484375 C-37.06822439 81.72678089 -35.77483268 74.1774705 -34.3125 66.5625 C-34.18094513 65.86845062 -34.04939026 65.17440125 -33.91384888 64.45932007 C-23.91862861 11.9830982 -23.91862861 11.9830982 -9.890625 1.03515625 C-6.336015 -0.91106617 -4.00697861 -0.63602835 0 0 Z " fill="#13112C" transform="translate(65,3)"/>
<path d="M0 0 C-0.97469937 2.05464796 -1.97406983 3.96218852 -3.26171875 5.83984375 C-20.33575461 30.95972665 -22.16101715 67.61503398 -26 97 C-25.01 97 -24.02 97 -23 97 C-23 97.99 -23 98.98 -23 100 C-24.485 100.495 -24.485 100.495 -26 101 C-26.33 101.66 -26.66 102.32 -27 103 C-26.01 103 -25.02 103 -24 103 C-24 106 -24 106 -26 108.1875 C-26.66 108.785625 -27.32 109.38375 -28 110 C-26.68 110 -25.36 110 -24 110 C-24 110.99 -24 111.98 -24 113 C-24.9576123 113.62962646 -24.9576123 113.62962646 -25.93457031 114.27197266 C-28.28329216 115.89084806 -28.28329216 115.89084806 -28.72949219 118.96630859 C-28.83422852 120.18141113 -28.93896484 121.39651367 -29.046875 122.6484375 C-29.10812057 123.32088501 -29.16936615 123.99333252 -29.23246765 124.68615723 C-29.42692275 126.91456924 -29.59053756 129.1438269 -29.75 131.375 C-29.80970978 132.1408844 -29.86941956 132.9067688 -29.93093872 133.69586182 C-30.8892351 146.07859507 -31.33531766 158.45730757 -31.4375 170.875 C-31.44962524 171.64269714 -31.46175049 172.41039429 -31.47424316 173.20135498 C-31.68993559 189.20083458 -28.33585886 201.62100625 -18 214 C-10.67081854 221.31469691 0.08047044 226.10093238 10.41822815 226.14717102 C11.51849838 226.15432632 12.61876862 226.16148163 13.75238037 226.16885376 C14.95501526 226.17154266 16.15765015 226.17423157 17.39672852 226.17700195 C18.66711472 226.18357315 19.93750092 226.19014435 21.24638367 226.19691467 C25.45721177 226.2179162 29.66804006 226.22831651 33.87890625 226.23828125 C35.33234106 226.2423309 36.78577569 226.24644788 38.23921013 226.25063133 C45.07199426 226.26967801 51.90476765 226.28390758 58.73757321 226.2922433 C66.6041909 226.30200042 74.47052606 226.32828192 82.3370443 226.36874419 C88.42981778 226.39899843 94.52251073 226.41372113 100.61535782 226.41702431 C104.24815578 226.41936509 107.88065177 226.42819684 111.51336861 226.45348549 C115.57492679 226.48130238 119.6358621 226.47690682 123.69750977 226.4699707 C124.88597504 226.48278076 126.07444031 226.49559082 127.29891968 226.50878906 C139.21889094 226.43488778 150.7956771 222.55964076 159.74609375 214.41015625 C161.31344705 212.67996105 162.66580065 210.91577342 164 209 C164.52464844 208.2471875 165.04929688 207.494375 165.58984375 206.71875 C172.88623562 195.4441298 173.50746285 184.12078936 173.375 171.0625 C173.37101196 170.27128754 173.36702393 169.48007507 173.36291504 168.66488647 C173.28892838 156.01712027 172.70673507 143.42288441 171.75 130.8125 C171.69559753 130.02457062 171.64119507 129.23664124 171.58514404 128.42483521 C171.42686094 126.20406207 171.24183638 123.98734927 171.046875 121.76953125 C170.94213867 120.50729736 170.83740234 119.24506348 170.72949219 117.94458008 C170.31581606 114.8810916 170.31581606 114.8810916 167.93457031 113.5769043 C167.29616211 113.38652588 166.65775391 113.19614746 166 113 C166 112.01 166 111.02 166 110 C166.99 110 167.98 110 169 110 C169 109.01 169 108.02 169 107 C168.01 106.67 167.02 106.34 166 106 C167 103 167 103 169 100 C167.68 100 166.36 100 165 100 C165 99.01 165 98.02 165 97 C165.99 97 166.98 97 168 97 C163.1322317 49.44043744 163.1322317 49.44043744 145.296875 5.98046875 C144.02921932 4.04462106 142.9943158 2.08712515 142 0 C148.29268183 2.3306229 151.13575077 7.926403 153.9375 13.625 C164.46737176 37.56631968 172 67.81937065 172 94 C178.435 93.01 178.435 93.01 185 92 C185.33 93.65 185.66 95.3 186 97 C182.04 97.66 178.08 98.32 174 99 C173.67 99.99 173.34 100.98 173 102 C178.94 101.505 178.94 101.505 185 101 C185.33 101.99 185.66 102.98 186 104 C181.89542386 106.98514628 179.02254631 107.2954439 174 107 C174 107.99 174 108.98 174 110 C176.64 110.33 179.28 110.66 182 111 C182.33 112.32 182.66 113.64 183 115 C180.29120665 116.35439668 177.99066732 116.06501451 175 116 C175.08564209 116.85529297 175.17128418 117.71058594 175.25952148 118.59179688 C178.71349381 153.23880088 178.71349381 153.23880088 179 163 C179.02723145 163.9079834 179.05446289 164.8159668 179.08251953 165.75146484 C179.57819603 185.17013721 178.779712 201.62757872 166.234375 217.40625 C164.92205214 218.99413247 164.92205214 218.99413247 164 221 C164.68964844 221.03738281 165.37929687 221.07476562 166.08984375 221.11328125 C172.48646465 221.56078148 178.03070248 222.65649801 184 225 C184 226.32 184 227.64 184 229 C178.20958906 231.08505587 172.58546187 232.6504152 166.5 233.5625 C165.69739746 233.68544434 164.89479492 233.80838867 164.06787109 233.93505859 C153.10488629 235.52495118 142.05210711 236.32572759 131 237 C130.01480377 237.06515305 130.01480377 237.06515305 129.00970459 237.13162231 C111.69389924 238.25200437 94.3569799 238.18746702 77.01318359 238.18530273 C73.61273816 238.18522207 70.21242917 238.19208394 66.81201172 238.20581055 C48.80643124 238.27728293 30.85816541 238.12929572 12.87890625 237.078125 C12.16850567 237.03677618 11.45810509 236.99542736 10.72617722 236.95282555 C-33.5353596 234.30976027 -33.5353596 234.30976027 -43 228 C-42 225 -42 225 -40.3203125 224.0859375 C-34.23601711 222.11557849 -28.37754916 221.34569893 -22 221 C-22.804375 219.7934375 -22.804375 219.7934375 -23.625 218.5625 C-23.98851563 218.00949219 -24.35203125 217.45648438 -24.7265625 216.88671875 C-25.60978141 215.57814595 -26.5237433 214.29000575 -27.4609375 213.01953125 C-41.9581107 192.8191554 -37.344438 165.27609875 -35.5625 141.9375 C-35.4614093 140.610103 -35.4614093 140.610103 -35.35827637 139.25588989 C-35.16120174 136.70017095 -34.95909611 134.14492312 -34.75390625 131.58984375 C-34.69342606 130.82711151 -34.63294586 130.06437927 -34.57063293 129.27853394 C-34.20125584 124.82113342 -33.67578446 120.42156121 -33 116 C-33.94875 116.020625 -34.8975 116.04125 -35.875 116.0625 C-39 116 -39 116 -41 115 C-40.67 113.68 -40.34 112.36 -40 111 C-37.36 110.67 -34.72 110.34 -32 110 C-32 109.01 -32 108.02 -32 107 C-33.5778125 107.0928125 -33.5778125 107.0928125 -35.1875 107.1875 C-39.15816493 106.9922214 -40.84196969 106.29674932 -44 104 C-43.67 103.01 -43.34 102.02 -43 101 C-39.04 101.33 -35.08 101.66 -31 102 C-31.33 101.01 -31.66 100.02 -32 99 C-35.96 98.34 -39.92 97.68 -44 97 C-43.67 95.35 -43.34 93.7 -43 92 C-38.71 92.66 -34.42 93.32 -30 94 C-29.83564453 91.26009766 -29.83564453 91.26009766 -29.66796875 88.46484375 C-29.06822439 80.72678089 -27.77483268 73.1774705 -26.3125 65.5625 C-26.18094513 64.86845062 -26.04939026 64.17440125 -25.91384888 63.45932007 C-13.82666235 0 -13.82666235 0 0 0 Z " fill="#00000C" transform="translate(57,4)"/>
<path d="M0 0 C5.69097752 3.49219075 9.90017651 9.70052954 12 16 C13.26888117 31.28095467 13.26888117 31.28095467 8.5625 37.41796875 C3.40111374 42.64387234 -1.2571381 45.06300585 -8.625 45.375 C-15.5851561 45.26224342 -21.15843497 42.8575889 -26.078125 37.91015625 C-32.36637605 30.18194856 -34.7306427 23.45389108 -34.46484375 13.44921875 C-33.74469193 8.10557123 -31.92507775 4.67586646 -28 1 C-18.20430586 -5.92229053 -10.37960079 -5.16281703 0 0 Z " fill="#A6C71F" transform="translate(175,77)"/>
<path d="M0 0 C4.87537037 2.86419341 8.22270199 6.58075419 10.74609375 11.61328125 C12.12902113 21.92917196 10.20501004 29.26768335 4.68359375 37.80078125 C-0.61058484 43.56304271 -7.66148911 46.95610138 -15.44140625 47.30078125 C-22.36601771 46.88870864 -26.2464509 44.6013753 -31.07421875 39.8046875 C-35.77308959 34.02398361 -36.02078794 28.42553852 -35.71484375 21.1484375 C-35.11668376 16.56085452 -33.92636437 13.35098491 -31.25390625 9.61328125 C-30.71765625 8.74703125 -30.18140625 7.88078125 -29.62890625 6.98828125 C-21.50212868 -1.13849632 -11.06123952 -4.71397363 0 0 Z " fill="#A5C61F" transform="translate(104.25390625,75.38671875)"/>
<path d="M0 0 C4.56894615 2.34130077 8.10701082 5.1388773 10 10 C10.84612893 15.32274132 10.32904397 19.96857026 7.3203125 24.4921875 C4.36038127 27.87246399 1.18714648 29.63039511 -3.2421875 30.37890625 C-8.62272456 30.65970869 -11.86496975 29.65421278 -16 26 C-19.89496294 21.69504096 -20.69091199 18.10769853 -20.453125 12.46875 C-19.51996194 7.38462021 -16.57029863 4.39083593 -12.8125 1.0625 C-8.47005347 -0.5779798 -4.56832295 -0.8665256 0 0 Z " fill="#070801" transform="translate(165,81)"/>
<path d="M0 0 C4.56370686 2.06514109 8.21552009 5.27637671 10 10 C10.77778469 15.1298833 10.79046101 19.50788021 7.875 23.9375 C4.7770773 27.60654811 1.66570946 29.61644468 -3.171875 30.3125 C-7.18112291 30.52776163 -9.63605579 30.1716718 -13.3125 28.4375 C-17.83982181 24.3313244 -20.179881 20.57019878 -20.5625 14.5 C-20.32633815 9.55746982 -18.40207958 6.48713157 -15 3 C-10.66324398 -0.84112676 -5.52279774 -0.92190228 0 0 Z " fill="#070801" transform="translate(101,81)"/>
<path d="M0 0 C4.24590269 0.15197862 7.04633533 3.33025342 10.0625 6 C11.2128333 6.99691172 12.36388837 7.99299113 13.515625 8.98828125 C14.09376953 9.49053223 14.67191406 9.9927832 15.26757812 10.51025391 C19.43725481 14.0958468 23.73039659 17.53469062 28 21 C27.82079222 24.83228945 27.09116221 25.91525766 24.2265625 28.578125 C23.0357561 29.48169751 21.83457204 30.37170698 20.625 31.25 C19.35336082 32.20856732 18.08253868 33.16821939 16.8125 34.12890625 C16.17441406 34.60602051 15.53632812 35.08313477 14.87890625 35.57470703 C12.06665441 37.70801345 9.34891144 39.94240112 6.625 42.1875 C5.73039062 42.92355469 4.83578125 43.65960938 3.9140625 44.41796875 C2.96660156 45.20107422 2.96660156 45.20107422 2 46 C0.0625 45.25 0.0625 45.25 -2 44 C-2.75 41.875 -2.75 41.875 -3 40 C-0.95857689 38.27054511 1.08313202 36.54142952 3.125 34.8125 C3.69476563 34.32974609 4.26453125 33.84699219 4.8515625 33.34960938 C5.99762274 32.37936519 7.14508663 31.41077659 8.29394531 30.44384766 C9.43560529 29.47765174 10.5703756 28.50325828 11.69824219 27.52099609 C15.78433642 24 15.78433642 24 18 24 C15.23481457 21.07910509 12.43630706 18.49556678 9.23046875 16.0625 C8.56982422 15.55976563 7.90917969 15.05703125 7.22851562 14.5390625 C5.85535519 13.50360755 4.47495676 12.47768923 3.08789062 11.4609375 C-1.86294942 7.65635106 -1.86294942 7.65635106 -2.57421875 4.25 C-2 2 -2 2 0 0 Z " fill="#D1D1E4" transform="translate(95,141)"/>
<path d="M0 0 C2.3125 0.1875 2.3125 0.1875 5 1 C9.85326265 7.78243456 11.56125323 16.76828595 11 25 C5.45801527 24.24427481 5.45801527 24.24427481 3.125 23 C-0.14524349 21.46106189 -3.41464918 21.35853508 -7 21 C-6.42973071 13.30136452 -4.30684157 6.46026235 0 0 Z " fill="#E94D52" transform="translate(190,28)"/>
<path d="M0 0 C3.56807305 1.52917416 4.24860193 3.47380962 5.77734375 6.93359375 C7.69816881 11.89941336 8.625 15.76656603 8.625 21.125 C3.015 22.445 -2.595 23.765 -8.375 25.125 C-8.87070948 16.82186618 -7.45894484 9.86862792 -4.375 2.125 C-2.375 0.125 -2.375 0.125 0 0 Z " fill="#EA4E52" transform="translate(63.375,27.875)"/>
<path d="M0 0 C1.47583955 0.0001591 2.95168467 0.00585225 4.42749023 0.01586914 C5.20293686 0.01728409 5.97838348 0.01869904 6.77732849 0.02015686 C9.26361893 0.02577194 11.74982059 0.03832693 14.23608398 0.05102539 C15.91772331 0.05603845 17.59936405 0.06060169 19.28100586 0.06469727 C23.41189965 0.07574626 27.54272674 0.09302094 31.67358398 0.11352539 C31.67358398 2.09352539 31.67358398 4.07352539 31.67358398 6.11352539 C19.79358398 6.11352539 7.91358398 6.11352539 -4.32641602 6.11352539 C-4.32641602 0.14765383 -4.32641602 0.14765383 0 0 Z " fill="#DADAED" transform="translate(133.326416015625,189.886474609375)"/>
<path d="M0 0 C2.31 0 4.62 0 7 0 C7.66 1.32 8.32 2.64 9 4 C8.01 4.33 7.02 4.66 6 5 C6.32960216 10.01535052 6.32960216 10.01535052 9 14 C11.68839385 14.26991906 14.29141936 14.08737357 17 14 C17.66 12.02 18.32 10.04 19 8 C19.66 8 20.32 8 21 8 C21.3125 10.75 21.3125 10.75 21 14 C18.25408425 17.16196359 16.59199258 17.91691332 12.4375 18.5 C8.52854858 17.93142525 7.38911196 17.0580633 5 14 C2.50638429 15.20381448 0.31856917 16.45428722 -2 18 C-5.91054241 18.42660463 -8.12030578 18.58646281 -11.4375 16.375 C-13.39644605 13.397402 -13.31785906 11.49644963 -13 8 C-12.01 8.33 -11.02 8.66 -10 9 C-9.67 10.65 -9.34 12.3 -9 14 C-3.67829506 14.29562367 -3.67829506 14.29562367 1 12 C1.73343428 8.93443402 1.73343428 8.93443402 2 6 C1.01 5.34 0.02 4.68 -1 4 C-0.67 2.68 -0.34 1.36 0 0 Z " fill="#4E4D6B" transform="translate(124,106)"/>
<path d="M0 0 C7.92674345 -0.58716618 14.00134945 1.54628262 20.75 5.6875 C27.72063214 12.85176081 30.302061 19.28830122 30.39379883 29.22338867 C30.28544236 34.93039264 28.99786512 38.91204215 25 43 C24.01 43.66 23.02 44.32 22 45 C22.49814388 42.40965181 23.2036148 40.64328354 24.52734375 38.32421875 C26.25291015 34.42910734 26.33559918 31.67893952 26.25 27.4375 C26.23453125 26.15746094 26.2190625 24.87742187 26.203125 23.55859375 C26.0333264 20.58385286 25.68796246 17.89055193 25 15 C24.34 15 23.68 15 23 15 C22.443125 14.113125 21.88625 13.22625 21.3125 12.3125 C16.67482899 5.16205451 10.45665413 3.27442257 2.37890625 1.48046875 C1.59386719 1.32191406 0.80882812 1.16335937 0 1 C0 0.67 0 0.34 0 0 Z " fill="#679008" transform="translate(157,73)"/>
<path d="M0 0 C0 0.66 0 1.32 0 2 C-1.45640429 3.19483743 -2.9144539 4.38775543 -4.3828125 5.56787109 C-13.79259751 13.90087213 -19.3225389 29.01227644 -22 41 C-23.32 40.67 -24.64 40.34 -26 40 C-13.80026991 0 -13.80026991 0 0 0 Z " fill="#000000" transform="translate(191,4)"/>
<path d="M0 0 C10.00653318 3.38735838 15.55652108 14.05910683 20.10693359 23.06054688 C22.61349001 28.50398158 24.32689001 34.25672821 26 40 C24.02 40.495 24.02 40.495 22 41 C21.70867187 40.05640625 21.41734375 39.1128125 21.1171875 38.140625 C16.98099923 25.04983766 11.95152927 9.96768618 0 2 C0 1.34 0 0.68 0 0 Z " fill="#000000" transform="translate(65,4)"/>
<path d="M0 0 C0 0.66 0 1.32 0 2 C-1.64453125 3.078125 -1.64453125 3.078125 -3.8125 4.25 C-7.7189196 6.56619569 -9.38541083 8.6607916 -11 13 C-11.66 13 -12.32 13 -13 13 C-14.62669057 21.74346183 -15.7478212 31.15577366 -11 39 C-11.33 39.99 -11.66 40.98 -12 42 C-17.82377525 35.60424683 -18.82012703 30.0787358 -18.4609375 21.53515625 C-17.86348687 16.95301374 -16.67859345 13.72956935 -14 10 C-13.4225 9.113125 -12.845 8.22625 -12.25 7.3125 C-9.16465708 4.14145311 -4.63586208 0 0 0 Z " fill="#669306" transform="translate(87,75)"/>
<path d="M0 0 C0.66 0 1.32 0 2 0 C2 1.65 2 3.3 2 5 C1.34 5 0.68 5 0 5 C-0.0825 5.598125 -0.165 6.19625 -0.25 6.8125 C-1.26134211 9.76224781 -2.24412147 10.54953762 -5 12 C-8.9518567 12.49398209 -11.08716465 12.6085569 -14.4375 10.375 C-16.39644605 7.397402 -16.31785906 5.49644963 -16 2 C-15.01 2.33 -14.02 2.66 -13 3 C-12.67 4.65 -12.34 6.3 -12 8 C-6.67829506 8.29562367 -6.67829506 8.29562367 -2 6 C-0.78715124 2.94570927 -0.78715124 2.94570927 0 0 Z " fill="#50506D" transform="translate(127,112)"/>
<path d="M0 0 C3 2 3 2 3.46875 4.3203125 C3.54457131 11.12527492 2.60369117 15.82571049 -2 21 C-2.99 21.66 -3.98 22.32 -5 23 C-4.51222439 20.46356681 -3.86904555 18.78719902 -2.5 16.5625 C-0.24462814 11.20599184 -0.24782221 5.75972989 0 0 Z " fill="#7AA60F" transform="translate(184,95)"/>
<path d="M0 0 C1.134375 0.020625 2.26875 0.04125 3.4375 0.0625 C4.0975 1.3825 4.7575 2.7025 5.4375 4.0625 C2.4375 6.0625 2.4375 6.0625 -0.75 5.6875 C-1.678125 5.48125 -2.60625 5.275 -3.5625 5.0625 C-4.125 3.125 -4.125 3.125 -4.5625 1.0625 C-3.5625 0.0625 -3.5625 0.0625 0 0 Z " fill="#DB4C52" transform="translate(127.5625,105.9375)"/>
<path d="M0 0 C3.69230769 0.69230769 3.69230769 0.69230769 5 2 C5.04063832 3.66617115 5.042721 5.33388095 5 7 C2.625 7.625 2.625 7.625 0 8 C-0.66 7.34 -1.32 6.68 -2 6 C-1.44444444 1.44444444 -1.44444444 1.44444444 0 0 Z " fill="#E7E7E7" transform="translate(158,83)"/>
<path d="M0 0 C2.125 0.375 2.125 0.375 4 1 C4.625 3.375 4.625 3.375 5 6 C4.34 6.66 3.68 7.32 3 8 C0.375 7.625 0.375 7.625 -2 7 C-2.125 4.625 -2.125 4.625 -2 2 C-1.34 1.34 -0.68 0.68 0 0 Z " fill="#E7E7E7" transform="translate(95,83)"/>
<path d="M0 0 C0.33 0 0.66 0 1 0 C1.03738281 0.72445312 1.07476562 1.44890625 1.11328125 2.1953125 C1.50158083 7.90560048 2.2053335 11.91878818 5 17 C4.67 17.99 4.34 18.98 4 20 C0.65191728 16.48859617 -0.94845799 14.58307596 -1.109375 9.640625 C-0.84081602 6.40378255 -0.48764972 3.21076304 0 0 Z " fill="#82AE11" transform="translate(71,97)"/>
<path d="M0 0 C0.66 0 1.32 0 2 0 C2.35555556 5.33333333 2.35555556 5.33333333 1 7.875 C-2.25313684 9.70488947 -5.31390109 9.18128355 -9 9 C-9 8.67 -9 8.34 -9 8 C-7.88625 7.79375 -6.7725 7.5875 -5.625 7.375 C-1.73400805 6.38371699 -1.73400805 6.38371699 -0.5625 2.875 C-0.376875 1.92625 -0.19125 0.9775 0 0 Z " fill="#555572" transform="translate(143,114)"/>
<path d="M0 0 C0.66 0 1.32 0 2 0 C2 1.65 2 3.3 2 5 C1.34 5 0.68 5 0 5 C-0.33 6.32 -0.66 7.64 -1 9 C-1.66 9 -2.32 9 -3 9 C-2.01 6.03 -1.02 3.06 0 0 Z " fill="#66627E" transform="translate(127,112)"/>
</svg>
